<svg xmlns="http://www.w3.org/2000/svg" width="128" height="128" viewBox="0 0 128 128" role="img" aria-label="imprint">
  <defs>
    <linearGradient id="g" x1="0" y1="0" x2="1" y2="1">
      <stop offset="0" stop-color="#7c83ff"/>
      <stop offset="1" stop-color="#a78bfa"/>
    </linearGradient>
  </defs>
  <rect width="128" height="128" rx="30" fill="url(#g)"/>
  <g transform="translate(38 31.5) scale(0.54)" fill="none" stroke="#0c0d15" stroke-width="5.2" stroke-linecap="round" stroke-linejoin="round">
    <path d="M34,108 C18,102 14,72 16,52 C18,28 32,16 48,16 C64,16 78,28 80,52 C82,72 78,102 62,108"/>
    <path d="M37,100 C26,95 24,72 26,54 C28,36 38,26 48,26 C58,26 68,36 70,54 C72,72 70,95 59,100"/>
    <path d="M40,92 C33,88 32,70 34,57 C36,44 42,38 48,38 C54,38 60,44 62,57 C64,70 63,88 56,92"/>
    <path d="M44,54 C44,47 53,47 53,55 C53,61 46,61 46,55"/>
    <path d="M20,78 C22,74 26,73 29,75"/>
    <path d="M76,64 C74,60 70,59 67,61"/>
  </g>
</svg>
