<svg xmlns="http://www.w3.org/2000/svg" width="128" height="128" viewBox="0 0 128 128" role="img" aria-label="imprint">
  <defs>
    <linearGradient id="g" x1="0" y1="0" x2="1" y2="1">
      <stop offset="0" stop-color="#7c83ff"/>
      <stop offset="1" stop-color="#a78bfa"/>
    </linearGradient>
  </defs>
  <rect width="128" height="128" rx="30" fill="url(#g)"/>
  <g transform="translate(32 32) scale(0.667)" stroke="#0c0d15">
    <g fill="none" stroke-width="4.8" stroke-linecap="round" stroke-linejoin="round">
      <path d="M26,50 C21,30 33,15 50,15 C66,15 74,29 72,45"/>
      <path d="M32,50 C28,33 38,23 51,23 C63,23 69,33 68,45"/>
      <path d="M39,49 C36,36 44,29 54,29 C62,29 66,37 65,46"/>
      <path d="M46,47 C44,39 50,34 56,37 C60,39 59,45 53,45"/>
    </g>
    <rect x="34" y="55" width="28" height="26" rx="4" fill="#0c0d15"/>
  </g>
</svg>
