<svg xmlns="http://www.w3.org/2000/svg" width="96" height="96" viewBox="0 0 96 96" role="img" aria-label="imprint mark">
  <g fill="none" stroke="#a78bfa" stroke-width="4.5" stroke-linecap="round" stroke-linejoin="round">
    <path d="M26,50 C21,30 33,15 50,15 C66,15 74,29 72,45"/>
    <path d="M32,50 C28,33 38,23 51,23 C63,23 69,33 68,45"/>
    <path d="M39,49 C36,36 44,29 54,29 C62,29 66,37 65,46"/>
    <path d="M46,47 C44,39 50,34 56,37 C60,39 59,45 53,45"/>
  </g>
  <rect x="34" y="55" width="28" height="26" rx="4" fill="#a78bfa"/>
</svg>
