<svg xmlns="http://www.w3.org/2000/svg" width="138" height="112" viewBox="0.1 -160.1 208.7 169.7" role="img" aria-label="imprint mark">
  <g transform="translate(-7.76 -169.11) scale(0.7570 1.1355)" fill="none" stroke="#a78bfa" stroke-width="4.5" stroke-linecap="round" stroke-linejoin="round"><path d="M26,50 C21,30 33,18 50,17 C68,17 74,29 74,48"/><path d="M32,49 C28,33 38,23 51,23 C66,23 69,33 68,47"/><path d="M39,48 C36,36 44,29 54,29 C60,29 66,37 62,46"/><path d="M46,47 C44,39 50,34 56,37 C60,39 57,45 53,46"/></g><path d="M11.20-14.40L11.20-51.40L45.20-51.40L45.20-0.20Q43 0.40 38.90 1Q34.80 1.60 30 1.60Q20.20 1.60 15.70-1.80Q11.20-5.20 11.20-14.40M45.20-82.60L45.20-42.20L11.20-42.20L11.20-96.80Q13.40-97.40 17.50-98Q21.60-98.60 26.40-98.60Q36.40-98.60 40.80-95.30Q45.20-92 45.20-82.60" fill="#a78bfa"/><path d="M143.60-66.80L143.60-44.20L109.60-44.20L109.60-62.20Q109.60-68.20 106.10-70.90Q102.60-73.60 97.60-73.60Q93.80-73.60 91-72.50Q88.20-71.40 86.40-70.40L86.40-44.20L52.40-44.20L52.40-74.60Q52.40-80 54.70-83.40Q57-86.80 61-89.60Q67.80-94.40 77.90-97.30Q88-100.20 99-100.20Q108.40-100.20 117-97.30Q125.60-94.40 132.60-88Q134.20-86.60 135.90-85.20Q137.60-83.80 138.40-82.20Q140.60-78.80 142.10-74.80Q143.60-70.80 143.60-66.80M200.80-63.20L200.80-44.20L166.80-44.20L166.80-62.20Q166.80-68.20 163.60-70.90Q160.40-73.60 155.20-73.60Q151.40-73.60 148-72.10Q144.60-70.60 142.40-68.80L123.80-87.80Q130.80-92.80 139.30-96.50Q147.80-100.20 160.40-100.20Q170.60-100.20 179.90-96.60Q189.20-93 195-84.90Q200.80-76.80 200.80-63.20M52.40-14.40L52.40-52.80L86.40-52.80L86.40-0.20Q84.20 0.40 80.10 1Q76 1.60 71.20 1.60Q61.40 1.60 56.90-1.80Q52.40-5.20 52.40-14.40M109.60-14.40L109.60-52.80L143.60-52.80L143.60-0.20Q141.40 0.40 137.30 1Q133.20 1.60 128.40 1.60Q118.60 1.60 114.10-1.80Q109.60-5.20 109.60-14.40M166.80-14.40L166.80-52.80L200.80-52.80L200.80-0.20Q198.60 0.40 194.50 1Q190.40 1.60 185.60 1.60Q175.80 1.60 171.30-1.80Q166.80-5.20 166.80-14.40" fill="#a78bfa"/>
</svg>
